<svg xmlns="http://www.w3.org/2000/svg" xmlns:xlink="http://www.w3.org/1999/xlink" width="660" zoomAndPan="magnify" viewBox="0 0 495 209.999996" height="280" preserveAspectRatio="xMidYMid meet" version="1.0"><defs><clipPath id="169864558f"><path d="M 129.753906 2.023438 L 365.253906 2.023438 L 365.253906 208.273438 L 129.753906 208.273438 Z M 129.753906 2.023438 " clip-rule="nonzero"/></clipPath></defs><g clip-path="url(#169864558f)"><path fill="#4680ff" d="M 287.097656 44.015625 C 289.113281 44.015625 290.75 45.65625 290.75 47.675781 C 290.75 49.695312 289.113281 51.332031 287.097656 51.332031 C 285.078125 51.332031 283.441406 49.695312 283.441406 47.675781 C 283.441406 45.65625 285.078125 44.015625 287.097656 44.015625 Z M 197.890625 162.507812 C 170.859375 162.433594 149.65625 172.089844 129.753906 191.082031 C 147.238281 181.726562 165.601562 175.492188 186.203125 173.652344 C 190.070312 173.308594 193.96875 173.117188 197.890625 172.988281 L 197.890625 208.121094 L 239.835938 208.121094 L 239.835938 170.121094 C 243.296875 169.414062 246.71875 168.503906 250.09375 167.328125 C 260.242188 163.792969 268.941406 158.5 277.164062 153.25 L 314.496094 208.121094 L 365.253906 208.121094 L 307.320312 122.964844 C 334.082031 116.445312 354.101562 92.167969 354.101562 63.433594 C 354.101562 29.742188 326.578125 2.179688 292.933594 2.179688 L 197.890625 2.179688 L 197.890625 92.988281 C 211.90625 81.050781 228.71875 73.824219 242.101562 61.714844 C 247.152344 57.140625 251.199219 51.648438 255.402344 46.65625 C 261.660156 39.222656 268.265625 32.902344 279.054688 32.386719 C 288.265625 31.945312 296.671875 35.011719 304.269531 41.585938 C 315.683594 42.140625 326.664062 43.628906 334.640625 51.652344 C 309.953125 51.429688 289.253906 65.640625 292.289062 90.742188 C 292.742188 94.511719 292.886719 98.113281 292.746094 101.546875 C 292.386719 110.308594 290.175781 117.992188 286.53125 124.6875 C 282.589844 131.933594 276.972656 138.015625 270.21875 143.039062 C 261.574219 149.46875 251.066406 154.160156 239.835938 157.328125 C 226.589844 161.058594 212.332031 162.671875 198.921875 162.511719 C 198.578125 162.507812 198.234375 162.507812 197.890625 162.503906 Z M 197.890625 162.507812 " fill-opacity="1" fill-rule="evenodd"/></g></svg>