<svg width="105" height="105" viewBox="0 0 105 105" fill="none" xmlns="http://www.w3.org/2000/svg">
<path d="M52.2758 104.815C40.4338 104.815 28.5918 104.815 16.7516 104.815C14.9301 104.815 13.2153 104.379 11.5076 103.754C8.83855 102.777 6.63506 101.181 4.70878 99.1337C2.09302 96.3544 0.660748 93.0563 0.156077 89.2908C-0.0234008 87.9581 0.0121394 86.6377 0.0121394 85.3139C-0.000299636 62.6979 -0.00740768 40.0818 0.0121394 17.4658C0.0156935 13.8158 1.09434 10.4768 3.23741 7.49146C6.28143 3.24973 10.3917 0.788575 15.5397 0.0297912C15.8595 -0.016411 16.19 0.00491308 16.5152 0.00491308C40.4658 0.00491308 64.4146 -0.014634 88.3651 0.0244602C91.6473 0.0297912 94.5971 1.16352 97.2875 3.11824C99.1569 4.47765 100.706 6.09828 101.975 7.96948C102.901 9.33422 103.798 10.7576 104.024 12.4902C104.102 13.0944 104.499 13.6541 104.653 14.2832C104.994 15.6764 104.996 17.0855 104.996 18.5036C104.991 41.5052 105.019 64.5051 104.973 87.5067C104.964 92.2318 103.175 96.2834 99.8108 99.6757C98.6949 100.801 97.4758 101.78 96.1324 102.485C93.6837 103.77 91.1301 104.838 88.2461 104.829C76.2566 104.797 64.2671 104.817 52.2776 104.815H52.2758ZM101.259 52.4943H101.263C101.263 40.7713 101.288 29.0466 101.236 17.3237C101.229 15.5786 100.85 13.8674 100.138 12.2041C99.3648 10.4022 98.2275 8.90418 96.9054 7.53588C95.6686 6.25466 94.1617 5.32884 92.502 4.63403C90.1546 3.65312 87.6739 3.61225 85.2163 3.60869C62.7744 3.57315 40.3325 3.57848 17.8906 3.59625C16.7516 3.59625 15.5823 3.7082 14.4806 3.97831C8.37653 5.47988 3.65501 11.2285 3.68344 17.8248C3.77585 40.4728 3.71543 63.1208 3.73142 85.767C3.73142 86.6644 3.69233 87.2366 3.69233 88.4681C3.87003 92.0203 4.66435 93.7014 6.27077 95.8071C9.01981 99.4127 13.0021 101.193 17.5441 101.2C40.6968 101.238 63.8495 101.223 87.0022 101.2C88.223 101.2 89.442 101.074 90.6592 100.77C96.6051 99.2865 101.204 93.8595 101.241 87.5725C101.312 75.8797 101.261 64.1852 101.261 52.4907L101.259 52.4943Z" fill="#E0E3E8"/>
<path d="M101.259 52.496C101.259 64.1905 101.309 75.8833 101.24 87.5778C101.202 93.8649 96.6017 99.2918 90.6576 100.776C89.4421 101.08 88.2213 101.204 87.0005 101.206C63.8478 101.229 40.6951 101.241 17.5425 101.206C12.9986 101.199 9.15141 99.5939 6.40237 95.9884C4.79595 93.8808 3.86835 92.15 3.69065 88.4734C3.69065 87.1584 3.72975 87.1744 3.72975 85.7723C3.71375 63.1243 3.77417 40.4763 3.68177 17.8301C3.65511 11.2338 8.37485 5.48344 14.4789 3.98542C15.5824 3.71531 16.7499 3.60336 17.889 3.60336C40.3308 3.58559 62.7727 3.58026 85.2146 3.6158C87.6722 3.61936 90.1529 3.66023 92.5003 4.64114C94.16 5.33417 95.667 6.26177 96.9038 7.543C98.2258 8.91129 99.3631 10.4093 100.136 12.2112C100.849 13.8745 101.227 15.5857 101.234 17.3308C101.284 29.0537 101.261 40.7767 101.261 52.5014H101.257L101.259 52.496ZM30.966 33.5495C30.966 33.7806 30.966 34.0133 30.966 34.2444C30.966 38.3581 30.9607 42.4719 30.966 46.5857C30.9678 48.1264 31.2254 48.3716 32.775 48.3734C34.5502 48.3769 36.3272 48.3734 38.1025 48.3734C39.7195 48.3734 39.9612 48.1388 39.9612 46.5431C39.963 38.4346 39.8937 30.3243 39.8901 22.2158C39.8901 21.9297 39.8795 21.7324 39.8795 21.3415C39.8795 19.863 39.6271 19.9021 38.0296 19.9021C36.313 19.8986 35.0016 19.8737 32.8816 19.8737C31.4049 19.7688 30.5928 20.4245 29.9513 21.6489C28.9011 23.6534 27.7691 25.617 26.6425 27.5788C26.0739 28.5686 25.5994 28.565 25.0272 27.5592C23.8348 25.4677 22.6709 23.3602 21.5176 21.2455C21.0716 20.4299 20.4496 19.911 19.4989 19.9057C17.3381 19.8914 15.1773 19.8932 13.0164 19.9092C12.1474 19.9163 11.7601 20.3517 11.7618 21.2349C11.7636 23.6623 11.7654 26.0879 11.7654 28.5153C11.7654 34.5234 11.7654 40.5314 11.7654 46.5395C11.7654 48.1086 12.0195 48.3698 13.5371 48.3716C15.2839 48.3751 17.0289 48.3769 18.7757 48.3734C20.3004 48.3716 20.5669 48.1033 20.5687 46.5573C20.5723 42.5021 20.5687 38.4488 20.5776 34.3936C20.5776 34.1022 20.4852 33.7788 20.7251 33.4305C21.4839 34.8219 22.2036 36.1315 22.9108 37.4483C23.3 38.1733 23.5416 38.5909 24.7145 38.5909C25.276 38.5909 25.8198 38.6069 26.5892 38.6069C27.8882 38.6069 28.2507 38.1982 28.7447 37.2191C29.3791 35.961 30.0082 34.6993 30.9642 33.5478L30.966 33.5495ZM34.6799 71.1902C34.6799 66.9876 34.6853 62.7867 34.6764 58.5841C34.6746 57.3277 34.3263 56.9794 33.1073 56.9759C31.1544 56.9688 29.2014 56.9617 27.2485 56.9723C25.9459 56.9794 25.7345 57.1802 25.7274 58.4561C25.7131 61.031 25.7043 63.6059 25.738 66.179C25.7451 66.8099 25.5408 66.9876 24.9277 66.9751C23.2715 66.9396 21.6118 66.9325 19.9556 66.9769C19.2768 66.9947 19.0298 66.833 19.044 66.1026C19.0902 63.6468 19.0618 61.191 19.0618 58.7351C19.0618 57.1696 18.8734 56.9723 17.3452 56.9706C15.5096 56.967 13.6757 56.9688 11.84 56.9759C10.1874 56.983 10.1092 57.0647 10.1092 58.7209C10.1092 66.5931 10.111 74.4634 10.1092 82.3356C10.1092 82.7141 10.1163 83.0251 10.1163 83.4676C10.1163 85.0758 10.3544 85.44 11.5877 85.4472C13.6295 85.4596 15.6713 85.4614 17.713 85.4436C18.7082 85.4347 19.0085 85.0829 19.012 84.0877C19.0245 81.3956 19.0618 78.7052 19.0565 76.013C19.0565 75.2169 19.0565 75.192 19.8615 75.192C21.132 75.2365 23.3515 75.2027 24.6238 75.2027C25.3643 75.2027 25.7333 75.4663 25.7309 75.9935C25.722 78.2076 25.7434 81.6728 25.6012 83.8869C25.5354 84.9265 26.1059 85.4436 27.1436 85.4489C29.0077 85.4596 30.8718 85.4543 32.7377 85.4489C34.5111 85.4436 34.6835 85.2748 34.6835 83.5315C34.6853 79.4178 34.6835 75.304 34.6835 71.192L34.6799 71.1902ZM93.6287 68.4607H93.6323C93.6323 65.2052 93.6376 61.948 93.6287 58.6925C93.6252 57.2762 93.3249 56.9794 91.9157 56.9741C90.08 56.967 88.2444 56.9688 86.4087 56.9759C85.0493 56.9812 84.7561 57.2851 84.7472 58.6534C84.7454 58.9786 84.7472 59.3038 84.7472 59.6307C84.7472 65.1359 84.7472 70.6429 84.7437 76.148C84.7437 77.3067 84.4469 77.8575 83.3665 78.1205C82.4726 78.3693 81.1097 78.396 80.2158 78.2467C78.4584 77.9553 78.1581 77.774 78.1812 75.6398C78.2398 70.076 78.1918 64.5104 78.2096 58.9448C78.2132 57.5623 78.1172 56.9563 76.1891 56.9706C74.4725 56.983 72.756 56.9741 71.0376 56.9706C69.3459 56.967 69.1326 57.1731 69.1326 58.8382C69.1344 65.4398 69.1149 72.0396 69.1522 78.6412C69.1682 81.4826 70.5009 83.5582 73.106 84.747C74.9292 85.5787 76.8662 85.9216 78.8635 85.9731C81.9857 86.0513 85.1097 86.1402 88.1555 85.2641C90.3004 84.6475 92.1431 83.5884 93.0281 81.4151C93.4706 80.3311 93.6092 79.1388 93.6181 77.9642C93.6447 74.7975 93.6269 71.6291 93.6269 68.4625L93.6287 68.4607ZM71.2721 34.04H71.2793C71.2793 38.2728 71.2757 42.5039 71.281 46.7367C71.281 48.0588 71.5831 48.3698 72.8786 48.3698C78.9168 48.3752 84.9551 48.3752 90.9934 48.3698C92.1716 48.3698 92.5288 48.0198 92.5412 46.8487C92.5554 45.4875 92.4879 44.1228 92.5625 42.7651C92.63 41.523 92.1307 40.8726 90.6451 40.8868C87.4198 40.9206 84.1928 40.8797 80.9675 40.9064C80.2905 40.9064 80.1501 40.83 80.1501 40.1192C80.1501 39.5381 80.1501 38.9357 80.1501 38.3457C80.1501 37.69 80.2816 37.4945 80.9942 37.4945C83.2723 37.4945 85.5522 37.5158 87.8303 37.5052C88.9587 37.4998 89.3284 37.132 89.3408 36.0178C89.355 34.6868 89.3497 33.3541 89.3408 32.0231C89.3337 30.8663 88.8877 30.4167 87.7219 30.4113C85.8578 30.4007 83.992 30.4113 82.1279 30.4078C80.1394 30.406 80.1768 30.4025 80.143 28.3998C80.1288 27.6054 80.3278 27.346 81.163 27.3584C84.4469 27.4082 87.7326 27.3691 91.0183 27.3815C91.8268 27.3851 92.5128 27.1523 92.5128 26.2603C92.5128 24.4637 92.399 22.8448 92.399 20.867C92.399 19.9981 91.8588 19.9145 91.2546 19.9128C85.0387 19.9003 78.8227 19.8968 72.6085 19.9128C71.5938 19.9145 71.2704 20.3144 71.2704 21.345C71.2704 25.5779 71.2704 29.8089 71.2704 34.0418L71.2721 34.04ZM45.3029 34.2035C45.3171 34.2035 45.3313 34.2035 45.3456 34.2035C45.3456 38.2284 45.3456 42.2516 45.3456 46.2765C45.3456 48.2277 45.4913 48.3734 47.4211 48.3734C53.2213 48.3734 59.0214 48.3734 64.8216 48.3716C66.3569 48.3716 66.6022 48.1175 66.6057 46.5537C66.6093 45.2512 66.6128 43.9504 66.6057 42.6478C66.5986 41.3791 66.1206 40.9028 64.8447 40.8993C62.1525 40.8922 59.4586 40.9117 56.7664 40.8868C55.7429 40.8868 54.7015 41.0023 54.3817 40.7127C54.0423 40.375 54.2075 39.1631 54.2075 38.3102C54.2075 37.5922 54.4634 37.4856 55.0836 37.4945C57.3315 37.5265 59.5812 37.5141 61.8309 37.507C62.9628 37.5034 63.3822 37.1 63.4 35.9698C63.4213 34.6389 63.4142 33.3061 63.4018 31.9751C63.3911 30.8645 62.9504 30.4256 61.8291 30.4149C59.9952 30.3989 58.1596 30.4025 56.3239 30.4025C54.204 30.4025 54.204 30.374 54.204 28.9062C54.204 27.3336 54.204 27.3638 55.1635 27.3638C58.4777 27.3958 61.7918 27.3833 65.1059 27.3727C66.2343 27.3691 66.5844 27.0137 66.5986 25.8782C66.6146 24.517 66.6448 23.154 66.5968 21.7946C66.5364 20.0887 66.0069 19.8843 64.7221 19.8897C58.8917 19.9128 53.0631 19.9003 47.2327 19.9039C45.4824 19.9039 45.3011 20.094 45.3029 21.8657C45.3029 25.9777 45.3029 30.0915 45.3029 34.2035ZM39.6698 70.5238C39.6698 73.5536 39.6538 75.8922 39.6733 78.2307C39.6947 80.6723 40.3415 82.7976 42.6125 84.1517C44.6294 85.3547 46.8347 85.8594 49.1306 85.966C51.4443 86.0744 53.7775 86.1828 56.0734 85.7954C58.069 85.4596 60.1054 85.1895 61.7971 83.8692C63.2436 82.739 63.9455 81.2765 64.1517 79.4799C64.4076 77.2374 64.3009 74.993 64.2832 72.7504C64.2565 69.4718 64.5 66.1844 64.1321 62.9129C63.8993 60.848 62.9948 59.1563 61.1183 58.1363C58.5488 56.7395 55.7091 56.4677 52.8605 56.3539C51.0391 56.2811 49.2159 56.4605 47.4069 56.6845C45.9426 56.8657 44.505 57.1962 43.1883 57.9159C41.2193 58.9963 40.0394 60.6099 39.7995 62.8738C39.5045 65.6495 39.7586 68.434 39.6698 70.522V70.5238Z" fill="#3590DE"/>
<path d="M30.9658 33.5477C30.0098 34.6992 29.3807 35.9627 28.7463 37.219C28.2523 38.2 27.817 38.6087 26.7081 38.6087C26.0435 38.6087 25.0519 38.5909 24.5135 38.5909C23.6374 38.5909 23.3016 38.1733 22.9106 37.4483C22.2034 36.1315 21.4837 34.8219 20.7249 33.4305C20.485 33.777 20.5774 34.1022 20.5774 34.3936C20.5685 38.4487 20.5721 42.5021 20.5685 46.5572C20.5685 48.1015 20.3002 48.3716 18.7755 48.3733C17.0287 48.3751 15.2837 48.3733 13.5369 48.3716C12.0176 48.3698 11.7652 48.1068 11.7652 46.5395C11.7652 40.5314 11.7652 34.5233 11.7652 28.5152C11.7652 26.0879 11.7634 23.6622 11.7617 21.2348C11.7617 20.3517 12.1473 19.9163 13.0162 19.9092C15.1771 19.8932 17.3379 19.8914 19.4988 19.9056C20.4477 19.911 21.0714 20.4298 21.5175 21.2455C22.6707 23.3584 23.8347 25.4659 25.0271 27.5592C25.5992 28.565 26.0755 28.5686 26.6424 27.5788C27.769 25.6152 28.9009 23.6516 29.9511 21.6489C30.5926 20.4245 31.4047 19.7706 32.8814 19.8736C34.8877 19.8736 36.1671 19.9021 38.0294 19.9021C39.5683 19.9056 39.8793 19.863 39.8793 21.3415C39.8793 21.6329 39.89 21.9243 39.89 22.2157C39.89 30.358 39.9628 38.4345 39.9611 46.543C39.9611 48.1388 39.7194 48.3716 38.1023 48.3733C36.3271 48.3733 34.5501 48.3769 32.7748 48.3733C31.2253 48.3698 30.9694 48.1263 30.9658 46.5857C30.9587 42.4719 30.9658 38.3581 30.9658 34.2443C30.9658 34.0133 30.9658 33.7805 30.9658 33.5495V33.5477ZM35.3177 44.8051C35.5523 44.4142 35.4901 44.1103 35.4901 43.8224C35.4954 37.5194 35.4901 31.2163 35.4901 24.915C35.4901 24.0923 35.5825 23.6871 34.9392 23.6871C34.1609 23.6871 33.0574 23.497 32.6718 24.039C31.9556 25.043 31.2963 26.095 30.6122 27.1256C29.4358 28.8991 28.2896 30.6939 27.0724 32.4389C26.3527 33.4713 25.0679 33.53 24.398 32.5668C23.3727 31.0937 22.4237 29.5672 21.4428 28.0639C20.6201 26.8022 19.8097 25.5299 18.9728 24.2789C18.5712 23.68 17.2153 23.369 16.5258 23.6391C15.911 23.879 16.0052 24.6005 16.0052 25.1336C15.9945 31.3478 15.9981 37.562 15.9963 43.7762C15.9963 44.0748 15.9963 44.3733 15.9963 44.8424C16.4921 44.3786 16.3588 43.9717 16.3588 43.6163C16.3677 37.5496 16.3623 31.4846 16.3641 25.4179C16.3641 25.1229 16.3659 24.8262 16.3961 24.5312C16.4157 24.3286 16.3872 24.0141 16.6822 24.0141C17.2171 24.0141 18.2531 23.9821 18.6565 24.5632C19.2091 25.3593 19.7245 26.1785 20.2647 26.9835C21.5654 28.924 22.8396 30.8805 24.1812 32.7907C24.9773 33.9262 26.3829 33.9014 27.2199 32.8067C29.2279 30.1803 30.9569 27.3637 32.7428 24.5898C33.3417 23.863 33.9619 24.0336 34.5945 24.0336C35.2271 24.0336 35.1222 24.5543 35.1222 25.1709C35.1222 25.3468 35.1258 25.5263 35.1258 25.704C35.1258 31.7405 35.124 37.777 35.1276 43.8135C35.1276 44.1138 35.0441 44.4408 35.3213 44.8104L35.3177 44.8051Z" fill="#E0E3E8"/>
<path d="M34.6816 71.1884C34.6816 75.3022 34.6816 79.416 34.6816 83.528C34.6816 85.2694 34.5092 85.4383 32.7358 85.4454C30.8717 85.4507 29.0076 85.456 27.1417 85.4454C26.104 85.44 25.5335 84.9229 25.5993 83.8834C25.7415 81.671 25.729 78.2965 25.729 76.0823C25.729 75.1991 25.7379 75.1991 24.6219 75.1991C23.3496 75.1991 21.1301 75.2329 19.8596 75.1885C19.3229 75.1885 19.0546 75.4621 19.0546 76.0094C19.0599 78.7016 19.0226 81.392 19.0101 84.0842C19.0066 85.0793 18.7063 85.4312 17.7111 85.44C15.6694 85.4578 13.6276 85.456 11.5858 85.4436C10.3525 85.4365 10.1144 85.0527 10.1144 83.4853C10.1144 83.2596 10.1073 82.7106 10.1073 82.3321C10.1109 74.4599 10.1073 66.5895 10.1073 58.7174C10.1073 57.0612 10.1873 56.9794 11.8381 56.9723C13.6738 56.9652 15.5077 56.9634 17.3433 56.967C18.8715 56.9705 19.0599 57.166 19.0599 58.7316C19.0599 61.1874 19.0883 63.645 19.0421 66.0991C19.0279 66.8294 19.2749 66.9929 19.9537 66.9733C21.6099 66.9289 23.2679 66.9343 24.9258 66.9716C25.5389 66.9858 25.7432 66.8081 25.7361 66.1755C25.7041 63.6006 25.713 61.0257 25.7255 58.4526C25.7326 57.1767 25.944 56.9759 27.2466 56.9688C29.1995 56.9581 31.1525 56.9652 33.1054 56.9723C34.3244 56.9759 34.6727 57.3242 34.6745 58.5805C34.6816 62.7832 34.678 66.984 34.678 71.1866L34.6816 71.1884ZM14.4663 81.2925C14.9035 81.0473 14.756 80.6812 14.756 80.3862C14.7684 77.6923 14.7826 74.9983 14.7506 72.3044C14.7435 71.6451 14.859 71.3714 15.6125 71.3786C20.1421 71.4159 24.6717 71.4141 29.2013 71.3821C29.905 71.3768 30.0241 71.6309 30.0187 72.26C29.9885 75.16 30.0045 78.0619 30.0134 80.962C30.0134 81.2516 29.9068 81.5875 30.2515 81.9056V60.4233C29.9281 60.9475 30.0134 61.2816 30.0116 61.5979C30.0045 64.4109 29.9743 67.2221 30.0294 70.0334C30.0454 70.8739 29.7788 71.0498 28.9863 71.0427C24.6059 71.0054 20.2238 70.9912 15.8435 71.0534C14.8946 71.0658 14.7311 70.769 14.7471 69.9125C14.7986 67.1013 14.7684 64.2883 14.7595 61.4771C14.7595 61.1892 14.859 60.8551 14.4681 60.4624V81.2907L14.4663 81.2925Z" fill="#E0E3E8"/>
<path d="M93.6303 68.5034C93.6303 71.67 93.6481 74.8384 93.6214 78.0051C93.6125 79.1797 93.4739 80.3703 93.0315 81.456C92.1447 83.6275 90.302 84.6884 88.1589 85.305C85.1131 86.1811 81.9891 86.0922 78.8669 86.014C76.8696 85.9643 74.9326 85.6196 73.1094 84.7879C70.5043 83.5991 69.1715 81.5253 69.1555 78.6821C69.1182 72.0805 69.1378 65.4807 69.136 58.8791C69.136 57.214 69.3492 57.0079 71.041 57.0114C72.7575 57.015 74.4741 57.0239 76.1925 57.0114C78.1206 56.9972 78.2183 57.605 78.213 58.9857C78.1952 64.5513 78.2432 70.1169 78.1845 75.6807C78.1614 77.8167 78.4618 77.9962 80.2192 78.2876C81.1131 78.4369 82.2095 78.4493 83.3699 78.1614C84.4343 77.9642 84.747 77.3476 84.747 76.189C84.7506 70.6838 84.7506 65.1768 84.7506 59.6716C84.7506 59.3464 84.7488 59.0212 84.7506 58.6943C84.7595 57.326 85.0527 57.0221 86.4121 57.0168C88.2478 57.0097 90.0834 57.0061 91.9191 57.015C93.3282 57.0203 93.6285 57.3171 93.6321 58.7334C93.641 61.9889 93.6356 65.2461 93.6356 68.5016H93.6321L93.6303 68.5034ZM74.6892 79.9136C73.8753 78.8669 73.8788 76.9229 73.8895 75.3235C73.9215 70.7442 73.9055 66.1026 73.8948 61.5233C73.8948 61.2159 73.9979 60.5886 73.7154 60.5975C73.495 60.6135 73.5572 60.9955 73.5572 61.1643C73.5643 66.7193 73.5821 72.2813 73.5785 77.8345C73.5785 78.7461 73.9535 80.1801 75.4888 81.1361C75.4888 81.1361 75.5972 81.1735 76.0024 81.4578C77.0437 82.0566 78.1508 82.1988 79.0748 82.2326C80.2405 82.2752 81.3672 82.2859 82.5169 82.2592C83.4285 82.2379 84.3632 82.2183 85.2766 82.0033C87.983 81.3654 89.3282 79.6826 89.3531 77.1379C89.4206 71.8459 89.3726 66.3159 89.3637 61.0222C89.3264 60.928 89.4383 60.6383 89.138 60.6383C88.9355 60.6383 88.9763 60.896 88.9817 61.1199C88.9745 66.1169 89.0119 71.6043 89.003 76.6012C88.9976 79.7394 87.0021 81.7723 83.8781 81.8807C82.4902 81.9287 81.1006 81.8985 79.711 81.9091C77.7545 81.9234 75.5812 81.1042 74.6892 79.9136ZM75.4906 81.1361C75.4906 81.1361 75.599 81.1735 76.0041 81.4578L75.4906 81.1361Z" fill="#E0E3E8"/>
<path d="M71.272 34.0382C71.272 29.8053 71.272 25.5743 71.272 21.3414C71.272 20.3108 71.5955 19.9127 72.6101 19.9092C78.8261 19.8932 85.0421 19.8985 91.2563 19.9092C91.8587 19.9092 92.4007 20.0069 92.4007 20.8634C92.4007 22.5409 92.5144 24.6964 92.5144 26.2567C92.5144 27.1505 91.8267 27.3815 91.02 27.3779C87.7343 27.3655 84.4486 27.4046 81.1647 27.3548C80.3295 27.3424 80.1305 27.6019 80.1447 28.3962C80.1784 30.4006 80.1411 30.4024 82.1296 30.4042C83.9937 30.406 85.8595 30.3971 87.7236 30.4078C88.8893 30.4149 89.3354 30.8644 89.3425 32.0195C89.3514 33.3505 89.3567 34.6832 89.3425 36.0142C89.33 37.1284 88.9604 37.4962 87.832 37.5016C85.5539 37.5122 83.274 37.5282 80.9959 37.4909C80.3348 37.4803 80.1518 37.6544 80.1518 38.3421C80.1518 38.9623 80.1518 39.5256 80.1518 40.1156C80.1518 40.7802 80.2548 40.9028 80.9692 40.9028C84.1945 40.8761 87.4215 40.917 90.6468 40.8832C92.1324 40.8672 92.6317 41.5194 92.5642 42.7615C92.4896 44.1192 92.5571 45.4839 92.5429 46.8451C92.5304 48.0162 92.1733 48.3662 90.9951 48.3662C84.9568 48.3698 78.9185 48.3698 72.8802 48.3662C71.5848 48.3662 71.2845 48.0552 71.2827 46.7331C71.2774 42.5003 71.2809 38.2692 71.2809 34.0364H71.2738L71.272 34.0382ZM85.6534 33.9849C85.6534 33.7699 85.4739 33.7894 85.1647 33.7894C82.6183 33.7805 79.56 33.7556 77.0153 33.8018C76.2583 33.8161 75.9865 33.649 76.0025 32.8351C76.054 30.143 76.0469 27.449 76.0025 24.7551C75.99 24.0176 76.1979 23.8115 76.9407 23.8186C80.6102 23.8577 84.2815 23.8293 87.9511 23.8293C88.6548 23.8293 88.9231 23.8648 88.9231 23.696C88.9231 23.4543 88.6032 23.4721 88.4415 23.4721C84.3864 23.4667 80.3313 23.4756 76.2761 23.4561C75.7377 23.4525 75.6399 23.6764 75.6417 24.1438C75.6506 30.804 75.6524 37.4625 75.6382 44.1227C75.6382 44.6683 75.8194 44.8317 76.3561 44.8282C80.381 44.8086 84.4077 44.8158 88.4326 44.8086C88.605 44.8086 88.8716 44.9099 88.8929 44.5314C88.5944 44.3804 88.2674 44.4479 87.9546 44.4479C84.2549 44.4444 80.5552 44.4284 76.8554 44.4604C76.1855 44.4657 76.0007 44.2684 76.0078 43.6092C76.0398 40.7091 76.038 37.8072 76.0078 34.9071C76.0025 34.3172 76.1802 34.1484 76.7577 34.1537C79.3912 34.1786 82.5152 34.1679 85.1487 34.159C85.4562 34.159 85.6516 34.143 85.6516 33.9884L85.6534 33.9849Z" fill="#E0E3E8"/>
<path d="M45.3028 34.2034C45.3028 30.0914 45.3028 25.9776 45.3028 21.8656C45.3028 20.094 45.484 19.9056 47.2326 19.9038C53.063 19.9003 58.8933 19.9127 64.7219 19.8896C66.0049 19.8843 66.5345 20.0886 66.5967 21.7946C66.6447 23.154 66.6145 24.5169 66.5985 25.8781C66.5842 27.0136 66.236 27.369 65.1058 27.3726C61.7917 27.3833 58.4775 27.3957 55.1634 27.3637C54.2038 27.3637 54.2038 27.3602 54.2038 28.8191C54.2038 29.8746 54.9105 30.4024 56.3238 30.4024C58.1594 30.4024 59.9933 30.3989 61.829 30.4148C62.9503 30.4237 63.391 30.8644 63.4016 31.9751C63.4141 33.306 63.4212 34.6388 63.3998 35.9698C63.3821 37.1 62.9627 37.5016 61.8307 37.5069C59.5811 37.514 57.3331 37.5264 55.0834 37.4945C54.4633 37.4856 54.2074 37.5264 54.2074 38.3101C54.2074 39.2022 54.0332 40.3643 54.3815 40.7126C54.6729 41.0041 55.8795 40.8868 56.7663 40.8868C59.4584 40.9134 62.1524 40.8939 64.8446 40.8992C66.1222 40.9028 66.5985 41.3772 66.6056 42.6478C66.6127 43.9503 66.6091 45.2511 66.6056 46.5537C66.602 48.1174 66.3568 48.3698 64.8215 48.3715C59.0213 48.3751 53.2211 48.3715 47.421 48.3733C45.4911 48.3733 45.3454 48.2276 45.3454 46.2764C45.3454 42.2515 45.3454 38.2284 45.3454 34.2034C45.3312 34.2034 45.317 34.2034 45.3028 34.2034ZM59.8423 33.9742C59.8423 33.761 59.3234 33.8054 59.2559 33.8054C56.3576 33.8018 53.7507 33.8498 50.8541 33.8498C50.17 33.8498 50.0758 33.7094 50.0794 33.1408C50.0954 30.685 50.0883 28.2291 50.09 25.7733C50.09 24.4832 50.7458 23.8375 52.0572 23.8364C55.3713 23.8364 59.2932 23.8381 62.6055 23.831C62.9272 23.831 63.0178 23.8257 63.0178 23.6871C63.0178 23.4685 62.7335 23.5112 62.5664 23.5147C58.4917 23.5965 54.3371 23.5751 50.2731 23.5751C49.708 23.5751 49.708 23.6249 49.708 24.2699C49.7258 25.3344 49.7133 26.4006 49.7115 27.465C49.7115 32.9986 49.7346 38.5305 49.6849 44.0641C49.6849 44.7838 50.1078 44.8157 50.7493 44.8157C51.3517 44.8157 51.9221 44.8122 52.5103 44.8122C55.7054 44.8086 59.1563 44.8122 62.3532 44.8051C62.8241 44.8051 63.048 44.8548 63.048 44.6292C63.048 44.4443 62.6962 44.4461 62.4136 44.4461C59.0408 44.4461 55.2985 44.4408 51.9257 44.4461C51.604 44.4461 51.2024 44.4568 50.8844 44.4568C50.1984 44.4568 50.0794 44.4106 50.0794 43.8028C50.1114 41.0805 50.0936 38.3581 50.0936 35.6375C50.0936 34.1324 50.0883 34.1608 51.0781 34.1643C51.2558 34.1643 51.8901 34.1643 52.0679 34.1643C54.3175 34.1643 56.9973 34.1679 59.2452 34.159C59.5597 34.159 59.8458 34.1821 59.8458 33.976L59.8423 33.9742Z" fill="#E0E3E8"/>
<path d="M39.6697 70.5238C39.7586 68.4358 39.5045 65.6512 39.7994 62.8755C40.0393 60.6116 41.2193 58.9981 43.1882 57.9177C44.5032 57.1962 45.9408 56.8675 47.4068 56.6862C49.2158 56.4623 51.039 56.281 52.8605 56.3557C55.709 56.4712 58.5487 56.7431 61.1182 58.138C62.993 59.1563 63.8993 60.8497 64.1321 62.9146C64.4999 66.1861 64.2582 69.4718 64.2831 72.7522C64.3009 74.993 64.4075 77.2391 64.1516 79.4817C63.9472 81.2783 63.2453 82.7407 61.7971 83.8709C60.1053 85.1912 58.0689 85.4613 56.0733 85.7972C53.7774 86.1846 51.4442 86.0744 49.1305 85.9678C46.8346 85.8612 44.6294 85.3565 42.6125 84.1535C40.3432 82.7994 39.6946 80.6741 39.6733 78.2325C39.6537 75.8939 39.6697 73.5554 39.6697 70.5256V70.5238ZM44.0198 71.1955C44.0198 71.1955 44.0127 71.1955 44.0092 71.1955C44.0092 72.3203 44.0039 73.4434 44.0092 74.5683C44.0163 75.7215 44.0092 76.8766 44.0572 78.0281C44.0909 78.7993 44.4214 79.4693 44.8746 80.1037C46.2766 82.0708 48.5121 82.2965 50.5504 82.4742C52.1763 82.6163 53.9071 82.492 55.5811 82.0921C58.5576 81.3813 59.7926 79.9775 59.9348 77.2338C60.1462 73.1911 60.0165 69.1306 59.9738 65.0773C59.9525 63.0657 58.5238 61.0292 56.1195 60.5388C53.3758 59.9808 50.6445 59.8955 47.9151 60.441C45.7897 60.8657 44.0163 62.4082 44.0181 64.9813C44.0181 67.0515 44.0181 69.1235 44.0181 71.1937L44.0198 71.1955Z" fill="#E0E3E8"/>
<path d="M35.3196 44.8051C35.0424 44.4355 35.1259 44.1067 35.1259 43.8082C35.1205 37.7717 35.1241 31.7352 35.1241 25.6987C35.1241 25.521 35.1383 25.3415 35.1205 25.1656C35.0761 24.7195 35.2343 24.0283 34.5928 24.0283C33.8802 24.0283 33.3791 23.8577 32.7411 24.5845C30.9535 27.3584 29.2262 30.175 27.2182 32.8014C26.3812 33.896 24.9756 33.9209 24.1795 32.7854C22.8396 30.8733 21.5637 28.9168 20.263 26.9781C19.7245 26.1731 19.195 25.3628 18.6548 24.5578C18.2763 23.9927 17.3309 24.0087 16.6805 24.0087C16.3784 24.0087 16.4157 24.3233 16.3944 24.5259C16.366 24.8191 16.3624 25.1158 16.3624 25.4126C16.3624 31.4793 16.366 37.5442 16.3571 43.6109C16.3571 43.9663 16.4904 44.3733 15.9946 44.8371C15.9946 44.368 15.9946 44.0694 15.9946 43.7709C15.9946 37.5567 15.991 31.3425 16.0035 25.1283C16.0035 24.2184 15.9075 23.9892 16.4904 23.6516C16.8706 23.4312 18.3935 23.481 18.9711 24.2735C19.8596 25.4908 20.6184 26.7969 21.4411 28.0585C22.422 29.5637 23.3692 31.0901 24.3963 32.5615C25.0662 33.5229 26.351 33.466 27.0707 32.4335C28.2862 30.6885 29.4323 28.8937 30.6105 27.1203C31.2946 26.0896 31.9273 25.0234 32.6701 24.0336C33.0752 23.4934 34.097 23.6818 34.9375 23.6818C35.5808 23.6818 35.4884 24.0994 35.4884 24.9097C35.4884 31.2127 35.4937 37.5158 35.4884 43.8171C35.4884 44.105 35.5506 44.407 35.316 44.7998L35.3196 44.8051Z" fill="#3590DE"/>
<path d="M14.4681 81.2925V60.4641C14.8573 60.8586 14.7577 61.1909 14.7595 61.4788C14.7684 64.2918 14.7986 67.103 14.7471 69.9143C14.7311 70.7708 14.8946 71.0675 15.8435 71.0551C20.2238 70.9929 24.6059 71.0071 28.9863 71.0444C29.7788 71.0515 30.0454 70.8756 30.0294 70.0351C29.9743 67.2239 30.0045 64.4109 30.0116 61.5996C30.0116 61.2833 29.9281 60.951 30.2515 60.425V81.9073C29.9068 81.5892 30.0134 81.2534 30.0134 80.9637C30.0045 78.0636 29.9903 75.1618 30.0187 72.2617C30.0258 71.6326 29.9068 71.3785 29.2013 71.3838C24.6717 71.4141 20.1421 71.4176 15.6125 71.3803C14.8573 71.3732 14.7417 71.6468 14.7506 72.3061C14.7826 75.0001 14.7684 77.694 14.756 80.388C14.756 80.6847 14.9017 81.049 14.4663 81.2942L14.4681 81.2925Z" fill="#3590DE"/>
<path d="M74.636 79.9242C76.0327 81.3422 77.7546 81.9233 79.7111 81.9091C81.1007 81.8984 82.4903 81.9287 83.8782 81.8807C87.0039 81.7723 88.9978 79.695 89.0031 76.5568C89.012 71.5598 88.9764 66.147 88.9835 61.1501C88.9835 60.8462 88.932 60.6365 89.1399 60.6365C89.4171 60.6365 89.3585 60.9013 89.3656 61.1323C89.3745 66.4242 89.4225 71.7997 89.3549 77.0916C89.3212 79.7234 87.9849 81.3636 85.2785 82.0015C84.31 82.229 83.3398 82.245 82.3606 82.261C81.2518 82.2787 80.134 82.2769 79.0234 82.2414C77.7422 82.2005 76.548 81.8753 75.4907 81.1361C75.0855 80.8518 74.6253 80.5994 74.5435 80.0308C74.5738 79.9953 74.6057 79.9579 74.6377 79.9224L74.636 79.9242Z" fill="#3590DE"/>
<path d="M75.1796 80.9211C73.7616 79.8176 73.5786 78.6981 73.5803 77.7865C73.5839 72.2333 73.5661 66.6784 73.559 61.1252C73.559 60.9582 73.4986 60.5992 73.7349 60.5992C73.9713 60.5992 73.9162 61.0382 73.9162 61.5428C73.9162 66.1222 73.9428 70.7015 73.9109 75.2809C73.9002 76.8802 73.703 79.4196 75.3502 80.5568C75.3183 80.5924 75.2099 80.8838 75.1796 80.9211Z" fill="#3590DE"/>
<path d="M85.6534 33.9849C85.6534 34.1768 85.3673 34.1554 85.0581 34.1554C82.4245 34.1643 79.393 34.175 76.7594 34.1501C76.1819 34.1448 76.0024 34.3136 76.0095 34.9036C76.0397 37.8037 76.0415 40.7055 76.0095 43.6056C76.0024 44.2649 76.1872 44.4621 76.8572 44.4568C80.5569 44.4248 84.2566 44.4408 87.9564 44.4443C88.2691 44.4443 88.5961 44.3768 88.8946 44.5279C88.8715 44.9046 88.6068 44.8051 88.4344 44.8051C84.4095 44.814 80.3827 44.8051 76.3578 44.8246C75.8212 44.8264 75.6381 44.6629 75.6399 44.1191C75.6541 37.4589 75.6523 30.8005 75.6435 24.1402C75.6435 23.6729 75.7394 23.449 76.2779 23.4525C80.333 23.4738 84.3775 23.465 88.4326 23.4685C88.5925 23.4685 88.9248 23.4525 88.9248 23.6924C88.9248 23.8612 88.6387 23.8239 88.3224 23.8257C84.6529 23.8363 80.612 23.8541 76.9425 23.815C76.1997 23.8079 75.9935 24.014 76.0042 24.7515C76.0468 27.4437 76.0539 30.1394 76.0042 32.8316C75.9882 33.6454 76.2601 33.8125 77.0171 33.7983C79.5618 33.7521 82.5987 33.7769 85.1451 33.7858C85.4543 33.7858 85.6534 33.7521 85.6534 33.9813V33.9849Z" fill="#3590DE"/>
<path d="M59.844 33.9742C59.844 34.1875 59.5437 34.1573 59.1048 34.1573C56.8569 34.1662 54.314 34.1626 52.0643 34.1626C51.8866 34.1626 51.0621 34.1626 50.8844 34.1626C50.0954 34.1626 50.09 34.2195 50.0882 35.6357C50.0882 38.3581 50.106 41.0805 50.074 43.8011C50.074 44.4977 50.2819 44.4551 50.959 44.4551C51.2771 44.4551 51.6005 44.4462 51.9221 44.4444C55.2949 44.4391 59.0053 44.4391 62.3798 44.4444C62.6837 44.4444 63.0462 44.4497 63.0462 44.6274C63.0462 44.8496 62.8312 44.7998 62.4936 44.8033C59.2985 44.8105 55.7054 44.8051 52.5103 44.8105C51.9221 44.8105 51.3339 44.814 50.7315 44.814C50.0829 44.814 49.6849 44.7554 49.6849 44.0623C49.7346 38.5305 49.7115 32.9969 49.7115 27.4633C49.7115 26.3988 49.724 25.3326 49.708 24.2682C49.708 23.6747 49.7097 23.5734 50.2624 23.5734C54.4597 23.5734 58.4597 23.5965 62.5344 23.5148C62.7032 23.5112 63.0178 23.4686 63.0178 23.6853C63.0178 23.8613 62.8276 23.8275 62.506 23.8293C59.1919 23.8364 55.3695 23.8328 52.0554 23.8346C50.7452 23.8346 50.0894 24.4803 50.0882 25.7716C50.0882 28.2274 50.0936 30.6832 50.0776 33.139C50.0776 33.7077 50.1611 33.8481 50.8524 33.8481C53.7489 33.8481 56.649 33.8001 59.5491 33.8036C59.6166 33.8036 59.8423 33.8001 59.8423 33.9725L59.844 33.9742Z" fill="#3590DE"/>
<path d="M44.0197 71.1938C44.0197 69.1235 44.0197 67.0515 44.0197 64.9813C44.0197 62.4082 45.7914 60.8658 47.9167 60.4411C50.6462 59.8955 53.3775 59.9808 56.1212 60.5388C58.5272 61.0275 59.9542 63.0657 59.9755 65.0773C60.0199 69.1289 60.1479 73.1911 59.9364 77.2338C59.7942 79.9775 58.5592 81.3831 55.5827 82.0922C53.9088 82.492 52.1762 82.6164 50.552 82.4742C48.5138 82.2965 46.2783 82.0708 44.8762 80.1037C44.4231 79.4693 44.0926 78.7994 44.0588 78.0281C44.0091 76.8766 44.0179 75.7216 44.0108 74.5683C44.0037 73.4434 44.0108 72.3204 44.0108 71.1955C44.0144 71.1955 44.0179 71.1955 44.0215 71.1955L44.0197 71.1938ZM44.3929 71.279C44.3929 71.279 44.3876 71.279 44.3858 71.279C44.3858 73.2035 44.3858 75.1263 44.3858 77.0508C44.3858 77.1094 44.3858 77.1698 44.3858 77.2285C44.4231 79.4711 46.0117 81.3369 48.2241 81.719C50.6817 82.1437 53.134 82.1579 55.5934 81.6941C57.8928 81.2605 59.5312 79.4977 59.5472 77.248C59.5774 73.2515 59.6041 69.255 59.5295 65.2603C59.5046 63.9755 59.1208 62.7654 57.9675 61.868C56.5743 60.7805 54.9466 60.6383 53.3313 60.4535C51.5987 60.2563 49.8625 60.489 48.1513 60.7911C45.8536 61.1981 44.3183 63.151 44.3822 65.1537C44.448 67.1937 44.3964 69.2373 44.3964 71.2808L44.3929 71.279Z" fill="#3590DE"/>
<path d="M44.393 71.279C44.393 69.2373 44.4445 67.1919 44.3788 65.1519C44.3148 63.1492 45.8501 61.1963 48.1478 60.7893C49.8591 60.4872 51.5952 60.2545 53.3278 60.4517C54.9431 60.6347 56.5708 60.7787 57.964 61.8662C59.1173 62.7654 59.5011 63.9737 59.526 65.2585C59.6024 69.2532 59.574 73.2497 59.5438 77.2462C59.5278 79.4959 57.8894 81.2587 55.5899 81.6923C53.1306 82.1561 50.6783 82.1419 48.2207 81.7172C46.0083 81.3351 44.4196 79.4693 44.3823 77.2267C44.3823 77.1681 44.3823 77.1076 44.3823 77.049C44.3823 75.1245 44.3823 73.2018 44.3823 71.2773C44.3841 71.2773 44.3877 71.2773 44.3894 71.2773L44.393 71.279ZM48.6916 71.0942H48.688C48.688 72.8695 48.6916 74.6447 48.688 76.4182C48.6862 77.2249 48.951 77.9286 49.7702 78.1365C50.6445 78.3586 51.5348 78.5843 52.466 78.5186C54.3602 78.3871 55.295 77.6603 55.3021 76.2085C55.3181 72.8357 55.3145 69.4629 55.3056 66.0919C55.3021 65.1075 54.8471 64.5335 53.9231 64.322C52.6134 64.0235 51.2967 64.0608 49.9764 64.2723C49.1163 64.4091 48.6951 64.9031 48.6951 65.7685C48.6951 67.5438 48.6951 69.319 48.6951 71.0925L48.6916 71.0942Z" fill="#E0E3E8"/>
<path d="M48.6915 71.0942C48.6915 69.319 48.6915 67.5438 48.6915 65.7703C48.6915 64.9049 49.1127 64.4109 49.9727 64.2741C51.2931 64.0626 52.6098 64.0253 53.9195 64.3238C54.8435 64.5353 55.3002 65.1093 55.302 66.0937C55.3126 69.4665 55.3144 72.8393 55.2984 76.2103C55.2913 77.6621 54.3584 78.3889 52.4623 78.5204C51.5312 78.5843 50.6409 78.3604 49.7666 78.1383C48.9474 77.9304 48.6826 77.2267 48.6844 76.4199C48.688 74.6447 48.6844 72.8695 48.6844 71.096H48.688L48.6915 71.0942Z" fill="#3590DE"/>
</svg>
