<svg width="178" height="153" viewBox="0 0 178 153" fill="none" xmlns="http://www.w3.org/2000/svg">
<path d="M157.381 144.376C156.794 144.952 156.419 145.242 152.496 145.48C148.572 145.718 150.701 140.753 152.85 140.246C154.453 139.867 155.622 132.168 155.622 132.168C155.622 132.168 155.442 129.037 149.075 129.168C143.309 129.287 142.168 123.374 142.003 122.254C144.961 120.5 146.826 102.036 151.996 101.05C151.845 101.932 155.424 102.877 155.042 119.322C154.895 125.676 160.751 125.05 161.782 128.138C163.066 131.989 157.968 143.8 157.381 144.378V144.376Z" fill="#D38442"/>
<path d="M91.0554 101.05C84.6069 101.368 87.7759 124.402 87.7759 124.402L83.0573 137.739C83.0573 137.739 79.7756 137.957 79.301 139.752C78.8263 141.546 81.2801 142.911 82.5827 143.025C83.8853 143.139 86.2993 142.896 86.2993 142.896L94.2512 126.32L97.4535 111.401C97.4535 111.401 93.3191 100.939 91.0554 101.051V101.05Z" fill="#D38442"/>
<path d="M109.573 93.1469C110.165 98.4363 104.654 94.5251 98.7271 96.1769C92.8005 97.8288 87.0736 109.787 88.519 104.664C90.5561 97.4402 88.3225 94.2471 85.0558 90.0289C82.4463 86.6598 84.0915 81.6409 84.8571 78.7998C85.9095 74.8961 89.2675 73.6156 92.3752 73.6178C103.145 73.6231 104.047 85.3728 109.573 93.1459V93.1469Z" fill="#E3954B"/>
<path d="M91.2831 89.3227C91.2831 89.3227 85.2587 102.253 89.0022 114.412C90.9255 120.657 97.5963 124.113 99.8256 127.079C101.146 128.836 103.622 136.83 103.622 139.637C99.3306 139.637 100.791 144.2 104.214 144.221C112.686 144.275 107.791 134.167 108.104 128.093C108.281 124.658 107.203 119.981 109.368 118.193C121.856 121.502 134.613 119.397 134.613 119.397C134.613 119.397 133.24 124.112 138.009 128.329C141.956 131.821 138.825 139.663 137.179 139.605C134.971 139.528 132.333 144.266 136.181 145.07C140.028 145.875 140.493 144.832 141.211 144.429C141.929 144.027 148.327 135.803 145.955 124.93C150.225 120.663 161.268 107.432 152.86 98.6971C147.612 93.2467 121.506 98.2871 105.359 89.8958C99.889 87.0526 95.7772 87.7545 91.282 89.3216L91.2831 89.3227Z" fill="#E3954B"/>
<path d="M148.459 99.9915C148.459 99.9915 151.363 94.1827 156.88 93.9401C162.396 93.6975 168.057 86.5159 168.057 86.5159C168.057 86.5159 168.928 94.3512 165.445 97.1805C161.961 100.01 152.597 103.73 152.597 103.73L148.459 99.9926V99.9915Z" fill="#E3954B"/>
<path d="M87.9026 88.0583C87.9026 88.0583 87.7523 88.0583 87.4849 88.0529C86.8094 88.0422 85.3823 88.0111 83.7156 87.9274C82.9199 87.8887 82.0705 87.8372 81.2211 87.7707C79.7477 87.6547 78.2765 87.4927 77.1007 87.2662C76.5176 87.1546 76.0633 86.6104 75.8013 85.9116C75.6499 85.5092 75.5618 85.0551 75.5511 84.6033C75.5189 83.414 76.0118 82.2377 77.2456 82.0445C77.4808 82.008 77.73 81.9672 77.9909 81.9242C81.4015 81.3522 86.6451 80.2542 86.6451 80.2542L87.9026 88.0583Z" fill="#E3954B"/>
<path d="M87.6458 90.0761L77.108 90.236C77.108 90.236 76.7902 89.7508 76.7848 89.3022C76.7816 89.0124 76.9083 88.7376 77.3367 88.6206C77.7502 88.5079 79.3867 88.1559 81.2209 87.7706C83.1259 87.3691 85.2446 86.9312 86.428 86.6876H86.4291C87.0058 86.5695 87.3601 86.4965 87.3601 86.4965L87.4847 88.0528L87.6458 90.0761Z" fill="#E3954B"/>
<path d="M87.0542 78.4648L87.1766 79.4673L86.645 80.2541H88.9195L87.0542 78.4648Z" fill="#6B473D"/>
<path d="M87.2594 86.8615C87.2594 87.1019 87.0908 87.308 86.8546 87.3563C86.2092 87.4872 84.9002 87.7459 83.7146 87.9273C81.1825 88.3158 77.7783 88.889 76.7839 89.3022C76.7807 89.0124 76.9074 88.7376 77.3359 88.6206C77.7493 88.5079 79.3859 88.1559 81.22 87.7706C79.7467 87.6546 78.2755 87.4926 77.0997 87.2661C76.5166 87.1545 76.2008 86.9269 75.9377 86.2282C77.3445 86.8132 80.5489 87.2318 81.598 87.2575C83.5106 87.3026 87.2583 86.6822 87.2583 86.6822V86.8625L87.2594 86.8615Z" fill="#6B473D"/>
<path d="M85.7689 95.2774L107.574 87.0965L109.617 90.9691L86.6451 97.7171L85.7689 95.2774Z" fill="#6B473D"/>
<path d="M92.6444 76.9483C92.6444 76.9483 91.1024 84.1557 92.667 86.4966C93.4122 87.6118 97.4532 95.1218 102.531 92.4095C106.06 90.5248 102.192 82.4523 100.827 80.2541C99.4623 78.056 99.0983 74.9884 92.6434 76.9483H92.6444Z" fill="#D38442"/>
<path d="M77.8135 84.1234C77.5096 84.7663 76.3638 84.7073 75.5413 84.571C75.5091 83.3817 76.002 82.2054 77.2358 82.0122C77.471 81.9757 77.7201 81.9349 77.9811 81.8919C78.0541 82.6411 78.0734 83.576 77.8135 84.1234Z" fill="#6B473D"/>
<path d="M18.7299 117.447L18.4066 117.243C18.4506 117.172 22.925 110.126 29.5576 103.928C33.4595 100.283 37.3355 97.6384 41.0783 96.0675C45.7751 94.0972 50.2742 93.8202 54.4488 95.245C77.7211 103.189 95.5661 105.28 107.488 101.463C117.49 98.2601 121.41 91.749 124.272 86.9956C126.408 83.4479 127.952 80.8839 131.033 82.3892L130.865 82.7328C128.098 81.381 126.782 83.5693 124.6 87.1931C123.213 89.4963 121.486 92.3642 118.857 95.0346C115.769 98.1699 112.089 100.391 107.605 101.827C102.06 103.603 95.2244 104.128 87.2876 103.388C78.0079 102.524 66.917 99.9061 54.3253 95.6069C45.0628 92.4447 35.8852 98.5382 29.8176 104.207C23.2204 110.372 18.7729 117.377 18.7288 117.447H18.7299Z" fill="#999999"/>
<path d="M68.0225 116.57L67.9268 116.202C67.9634 116.192 71.6218 115.231 76.2468 112.719C80.5105 110.404 86.4912 106.259 90.7732 99.6652C94.079 94.5738 97.9977 90.4139 102.421 87.3034C105.961 84.8139 109.83 82.9861 113.919 81.8725C120.887 79.9752 126.159 80.8221 126.212 80.8307L126.148 81.2065C126.097 81.198 120.892 80.3639 114.002 82.2452C107.646 83.9798 98.5126 88.4459 91.0946 99.8718C86.7664 106.537 80.7256 110.722 76.4199 113.059C71.7552 115.59 68.0591 116.562 68.0225 116.57Z" fill="#666666"/>
<path d="M178 138.412L167.682 146.741C167.682 146.741 166.196 146.239 167.159 144.401C167.711 143.345 168.408 141.8 169.168 140.315C169.729 139.216 170.324 138.15 170.92 137.342C171.758 136.205 175.238 135.004 175.238 135.004L175.498 135.324L178 138.413V138.412Z" fill="white"/>
<path d="M140.156 79.0068C139.825 86.6489 148.694 109.119 148.694 109.119L170.71 138.443L175.498 135.323L159.038 102.975C159.038 102.975 156.441 82.1656 156.1 75.248C155.768 68.5343 140.85 63.0561 140.157 79.0079L140.156 79.0068Z" fill="#E88562"/>
<path d="M175.497 135.323C173.979 137.051 171.151 140.091 169.893 140.285C169.626 140.326 169.385 140.332 169.168 140.315C169.729 139.216 170.324 138.15 170.92 137.342C171.758 136.205 175.238 135.004 175.238 135.004L175.498 135.324L175.497 135.323Z" fill="#E88562"/>
<path d="M168.002 118.698L155.618 125.006L144.228 107.439C144.228 107.439 136.777 78.409 140.147 74.1736C143.517 69.9372 150.847 66.0733 153.637 68.85C159.188 74.3744 157.308 97.6698 159.537 100.897C164.604 108.231 168.002 118.698 168.002 118.698Z" fill="#1B4E75"/>
<path d="M134.124 17.9335L136.731 28.2299L144.948 25.6604L140.588 15.6151L134.124 17.9335Z" fill="#F69F72"/>
<path d="M145.692 13.929C144.961 16.4749 142.211 20.2573 142.211 20.2573C142.211 20.2573 136.17 22.7388 133.165 21.4873C130.519 20.385 130.006 13.9923 130.332 8.61385C130.376 7.88506 130.437 7.17452 130.509 6.49832C130.602 5.61927 130.934 4.89477 131.44 4.30552C133.772 1.58571 139.811 1.77139 143.21 3.14632C147.343 4.81857 145.903 13.1959 145.692 13.9279V13.929Z" fill="#F69F72"/>
<path d="M135.965 17.532C134.125 20.9119 132.287 17.7467 132.284 17.6029C132.284 17.6029 133.998 17.7446 135.965 17.532Z" fill="white"/>
<path d="M134.061 16.2838C133.665 16.2838 133.188 16.2012 132.978 15.8438C132.794 15.5325 132.958 15.2502 133.164 14.8928C133.423 14.4452 133.779 13.8313 133.779 12.7526C133.779 12.6978 133.823 12.6538 133.877 12.6538C133.932 12.6538 133.976 12.6978 133.976 12.7526C133.976 13.8839 133.606 14.5236 133.335 14.9905C133.124 15.3554 133.028 15.54 133.147 15.7439C133.459 16.2742 134.63 16.0327 134.642 16.0305C134.695 16.0187 134.747 16.0531 134.759 16.1067C134.771 16.1593 134.737 16.2119 134.683 16.2237C134.658 16.2291 134.388 16.2849 134.062 16.2849L134.061 16.2838Z" fill="#A56050"/>
<path d="M137.982 11.9518C137.96 11.9518 137.94 11.9453 137.922 11.9314C137.039 11.2466 136.236 11.1897 135.466 11.7597C135.422 11.7919 135.361 11.7822 135.328 11.7393C135.296 11.6953 135.306 11.6341 135.349 11.6019C136.188 10.9815 137.094 11.0405 138.042 11.7768C138.085 11.8101 138.093 11.8724 138.059 11.9142C138.04 11.9389 138.011 11.9518 137.982 11.9518Z" fill="#31150E"/>
<path d="M137.143 11.7748C137.128 12.1838 136.785 12.5025 136.376 12.4875C135.967 12.4725 135.648 12.1301 135.663 11.7212C135.678 11.3122 136.011 11.2757 136.42 11.2908C136.829 11.3058 137.159 11.367 137.144 11.7748H137.143Z" fill="#32160F"/>
<path d="M133.469 11.9959C133.448 11.9959 133.427 11.9894 133.409 11.9755C132.527 11.2907 131.723 11.2338 130.953 11.8037C130.909 11.8359 130.848 11.8263 130.816 11.7834C130.784 11.7393 130.793 11.6782 130.836 11.646C131.676 11.0256 132.581 11.0846 133.529 11.8209C133.572 11.8542 133.58 11.9164 133.547 11.9583C133.527 11.983 133.498 11.9959 133.469 11.9959Z" fill="#31150E"/>
<path d="M132.631 11.8188C132.616 12.2277 132.273 12.5465 131.864 12.5315C131.455 12.5165 131.136 12.1741 131.151 11.7651C131.166 11.3562 131.499 11.3197 131.908 11.3347C132.317 11.3498 132.647 11.4109 132.632 11.8188H132.631Z" fill="#32160F"/>
<path d="M138.448 10.5866C138.366 10.6789 137.723 10.4202 136.948 10.373C136.185 10.3086 135.521 10.3676 135.421 10.1358C135.311 9.91362 136.043 9.51971 137.013 9.72471C137.976 9.92542 138.537 10.5061 138.448 10.5866Z" fill="#7F4B3B"/>
<path d="M130.352 10.5071C130.429 10.6037 131.084 10.3794 131.86 10.373C132.625 10.3493 133.286 10.4427 133.397 10.2173C133.52 10.0016 132.809 9.56904 131.83 9.72253C130.857 9.87172 130.267 10.4223 130.352 10.5071Z" fill="#7F4B3B"/>
<path d="M140.232 14.2852C140.664 14.7489 140.494 15.6097 139.852 16.2065C139.21 16.8032 138.339 16.9117 137.908 16.448C137.476 15.9843 137.646 15.1235 138.288 14.5267C138.93 13.93 139.801 13.8215 140.232 14.2852Z" fill="#E88562"/>
<path d="M135.163 21.8447C135.163 21.8447 138.602 21.8265 140.793 20.18C140.252 22.2579 138.704 23.1348 135.747 24.3101C135.515 23.3527 135.163 21.8447 135.163 21.8447Z" fill="#E88562"/>
<path d="M107.611 143.076L107.517 143.46L106.546 147.379L93.9902 146.151C93.9902 146.151 93.2836 144.752 95.2595 144.115C96.3184 143.773 97.767 143.217 99.2425 142.715C100.518 142.283 101.813 141.892 102.894 141.718C104.287 141.494 107.612 143.076 107.612 143.076H107.611Z" fill="white"/>
<path d="M102.408 141.816L116.232 101.466C116.232 101.466 126.261 79.3181 132.755 73.3718C137.008 69.4778 141.705 68.0149 146.723 68.6063C151.354 69.1526 153.264 76.2011 148.983 81.162C140.37 91.1418 134.571 98.332 128.22 106.54C123.367 120.596 107.612 143.077 107.612 143.077L102.408 141.817V141.816Z" fill="#F7A072"/>
<path d="M107.611 143.076L107.516 143.46C105.427 143.651 102.749 143.782 100.949 143.457C100.142 143.311 99.6 143.041 99.2413 142.715C100.517 142.283 101.812 141.892 102.892 141.718C104.286 141.494 107.611 143.076 107.611 143.076Z" fill="#F7A072"/>
<path d="M144.723 8.36478L142.357 12.3254C142.357 12.3254 142.257 11.7146 140.005 11.032C139.112 10.7615 138.297 8.9476 137.681 8.28106C137.065 7.61453 135.372 8.28965 133.468 8.5612C132.141 8.75118 130.938 8.67497 130.333 8.61379C130.377 7.88501 130.437 7.17446 130.509 6.49827C130.602 5.61921 130.934 4.89472 131.44 4.30546L132.996 4.23677L141.078 5.20706L144.723 8.36478Z" fill="#E88562"/>
<path d="M153.689 16.185C152.728 23.8378 147.151 23.8947 144.504 24.4689C141.43 24.9197 141.842 20.9613 142.126 15.6237C142.185 14.5192 142.237 13.3557 142.252 12.16C142.259 11.6448 141.927 11.3626 141.483 11.1425C140.867 10.8398 140.035 10.6585 139.592 10.1465C139.584 10.1357 139.575 10.1261 139.567 10.1154C138.479 8.77799 138.057 6.97909 138.057 6.97909C138.057 6.97909 130.772 8.96797 129.344 7.87854C129.091 7.68534 128.981 7.25064 129.007 6.68071C129.135 4.02852 132.285 -1.52272 138.334 1.09405C139.459 -0.968887 147.892 -0.307718 148.417 4.74443C148.686 7.32256 150.032 9.01627 151.302 10.5758C152.69 12.2781 153.985 13.8215 153.688 16.1839L153.689 16.185Z" fill="#7F4B3B"/>
<path d="M141.08 13.7754C141.114 12.8309 141.908 12.0924 142.853 12.1268C143.798 12.1611 144.537 12.9543 144.502 13.8988C144.468 14.8433 143.674 15.5818 142.729 15.5475C141.784 15.5131 141.046 14.7199 141.08 13.7754Z" fill="#F69F72"/>
<path d="M143.736 14.2928C143.51 14.779 142.985 15.0333 142.474 14.9421C142.375 14.9249 142.297 14.823 142.427 14.8176C142.848 14.7994 143.242 14.5557 143.429 14.1511C143.62 13.7378 143.543 13.2699 143.273 12.9361C143.195 12.8416 143.28 12.8126 143.337 12.8524C143.796 13.1711 143.975 13.7743 143.736 14.2928Z" fill="#E88562"/>
<path d="M142.853 13.5457C142.853 13.5457 143.373 14.1714 143.489 14.1349C143.605 14.0984 143.424 14.3979 143.424 14.3979C143.424 14.3979 142.84 14.0394 142.853 13.5467V13.5457Z" fill="#E88562"/>
<path d="M146.794 21.8576L146.667 21.8232C147.173 19.9481 147.664 9.56261 143.711 8.17265C141.21 7.29253 139.801 3.30297 139.743 3.13339L139.867 3.09045C139.881 3.13124 141.314 7.18949 143.755 8.04815C145.933 8.8145 146.715 12.1429 146.989 14.8004C147.293 17.7532 147.066 20.8476 146.795 21.8565L146.794 21.8576Z" fill="#6D392D"/>
<path d="M134.695 7.37835L134.629 7.26458C134.658 7.2474 137.578 5.52686 138.111 2.15984L138.241 2.18023C137.697 5.61165 134.725 7.36117 134.695 7.37835Z" fill="#6D392D"/>
<path d="M130.18 7.01026C130.039 4.32909 131.685 2.94557 133.09 2.25757C134.605 1.5159 136.174 1.4032 136.191 1.40213L136.199 1.53308C136.184 1.53308 134.637 1.64578 133.145 2.37671C131.155 3.35236 130.202 4.90869 130.312 7.00275L130.181 7.00919L130.18 7.01026Z" fill="#6D392D"/>
<path d="M149.853 20.1843C149.845 20.0565 148.904 7.42672 146.06 4.79278C143.219 2.15991 140.533 2.00642 140.506 2.00535L140.513 1.8744C140.54 1.87548 143.271 2.02896 146.151 4.69725C149.032 7.36661 149.948 19.6541 149.985 20.1757L149.854 20.1854L149.853 20.1843Z" fill="#6D392D"/>
<path d="M141.528 67.9108L138.498 77.3443L142.46 79.3246C142.46 79.3246 148.451 69.4907 148.252 69.3416C148.206 69.3072 147.827 69.2127 147.269 69.0882C145.399 68.6707 141.529 67.9108 141.529 67.9108H141.528Z" fill="#F7A072"/>
<path d="M140.892 69.8921L147.173 71.4131L147.661 70.5576L141.331 68.5247L140.892 69.8921Z" fill="#E88562"/>
<path d="M125.06 122.885L109.164 115.796L117.11 99.0565C117.11 99.0565 131.217 69.1311 136.632 69.0882C142.046 69.0453 149.611 67.1466 152.355 69.9683C158.097 75.8748 143.675 90.8059 136.632 99.6694C131.345 106.324 125.06 122.884 125.06 122.884V122.885Z" fill="#26547C"/>
<path d="M157.822 77.971C153.29 79.478 148.121 79.5112 143.468 78.9434C137.627 78.2286 132.597 76.566 130.657 75.6762H130.655C130.256 75.4927 129.989 75.3435 129.871 75.2405C129.768 75.1503 129.78 75.0977 129.916 75.0902C130.495 73.4748 130.826 71.6513 130.977 69.7171C131.705 60.4715 128.358 48.6831 128.589 44.9855C128.802 42.4375 129.891 37.234 132.232 32.8097C133.99 29.4889 136.454 26.607 139.783 25.6163C142.366 24.6063 144.246 24.9143 145.779 26.0639C147.164 27.1007 148.265 28.8245 149.346 30.881C151.024 34.072 152.412 38.1087 153.548 42.474C157.443 57.4179 158.383 76.2011 157.823 77.9732L157.822 77.971Z" fill="#FFD166"/>
<path d="M145.778 26.0618C136.515 29.4439 135.212 32.5866 132.231 32.8077C133.989 29.4868 136.452 26.6049 139.781 25.6143C142.365 24.6043 144.244 24.9123 145.778 26.0618Z" fill="#F69F72"/>
<path d="M157.822 77.9711C153.295 79.5789 148.123 79.5692 143.468 78.9435C137.61 78.1589 132.569 76.4029 130.657 75.6763H130.655C130.124 75.4756 129.835 75.3532 129.835 75.3532C129.835 75.3532 129.848 75.3146 129.872 75.2394C129.884 75.2008 129.899 75.1493 129.917 75.0892C130.121 74.3947 130.669 72.3812 130.978 69.7161C131.142 68.3122 131.239 66.728 131.185 65.0589C138.84 61.8959 150.383 55.574 152.565 45.6167C152.866 44.2386 153.198 43.2082 153.549 42.4729C157.444 57.4169 158.384 76.2001 157.824 77.9721L157.822 77.9711Z" fill="#F7C561"/>
<path d="M153.689 16.1851C152.728 23.8379 147.151 23.8948 144.504 24.469C141.43 24.9198 141.842 20.9614 142.126 15.6237C142.613 17.6716 143.626 20.5996 144.947 20.4612C149.919 19.9374 152.198 16.5607 151.302 10.5759C152.69 12.2781 153.985 13.8216 153.688 16.184L153.689 16.1851Z" fill="#6D392D"/>
<path d="M133.999 85.8872C135.67 84.2165 135.67 81.5076 133.999 79.8368C132.327 78.1661 129.617 78.1661 127.945 79.8368C126.274 81.5076 126.274 84.2165 127.945 85.8872C129.617 87.558 132.327 87.558 133.999 85.8872Z" fill="#999999"/>
<path d="M148.598 37.5818L149.065 59.8651L135.655 82.464L131.285 80.4225L140.496 57.492C140.496 57.492 139.031 39.9377 139.442 36.9796C139.859 33.984 146.456 25.6657 148.598 37.5818Z" fill="#F69F72"/>
<path d="M136.864 39.019C137.34 42.2658 136.995 48.0135 138.657 52.3014C145.283 52.3454 146.734 52.384 150.479 51.5597C149.94 45.3806 148.164 34.2062 147.342 32.4202C145.899 29.2882 134.913 25.6947 136.864 39.019Z" fill="#FFD166"/>
<path d="M150.655 51.9225H150.422C150.422 48.3505 147.508 32.9977 147.478 32.8431L147.707 32.7991C147.736 32.9536 150.655 48.328 150.655 51.9225Z" fill="#F7C561"/>
<path d="M131.992 79.6722L129.542 82.9652C129.564 82.9265 128.228 84.9218 127.942 85.832C127.834 86.1776 127.921 86.7605 128.996 86.7798C129.057 87.354 130.132 87.3733 130.132 87.3733C130.132 87.3733 130.477 88.0957 131.125 87.8928C131.613 88.6892 131.97 88.6957 133.72 87.0803C134.148 86.6842 135.057 85.9072 135.327 85.3909C135.769 84.5483 135.974 81.3917 135.974 81.3917L131.992 79.6722Z" fill="#F7A072"/>
<path d="M131.768 80.0972C132.281 79.3051 130.248 80.9129 129.81 81.4228C129.466 81.8221 129.142 82.7 128.561 83.1186C127.98 83.5383 127.177 84.383 127.027 84.6664C126.879 84.9497 126.73 85.2342 127.089 85.2406C127.447 85.247 129.325 84.4216 129.325 84.4216L131.459 81.3809L131.769 80.0972H131.768Z" fill="#F7A072"/>
<path d="M128.418 84.8618C128.406 84.8618 128.396 84.8586 128.385 84.8511C128.358 84.8328 128.352 84.7963 128.37 84.7706L129.7 82.8289C129.719 82.8021 129.755 82.7956 129.781 82.8139C129.808 82.8321 129.814 82.8686 129.796 82.8944L128.466 84.836C128.455 84.8521 128.437 84.8618 128.417 84.8618H128.418Z" fill="#A56050"/>
<path d="M128.996 86.8388C128.983 86.8388 128.971 86.8345 128.96 86.827C128.935 86.8077 128.93 86.7712 128.95 86.7455L130.519 84.6911C130.538 84.6654 130.574 84.6611 130.6 84.6804C130.626 84.6997 130.63 84.7362 130.611 84.762L129.042 86.8163C129.03 86.8313 129.013 86.8388 128.996 86.8388Z" fill="#A56050"/>
<path d="M130.098 87.4624C130.084 87.4624 130.069 87.457 130.058 87.4463C130.034 87.4237 130.033 87.3872 130.056 87.3636L131.804 85.5003C131.826 85.4767 131.863 85.4756 131.887 85.4982C131.91 85.5207 131.911 85.5572 131.889 85.5808L130.141 87.4441C130.129 87.4559 130.114 87.4624 130.098 87.4624Z" fill="#A56050"/>
<path d="M131.125 87.9518C131.109 87.9518 131.093 87.9454 131.081 87.9314C131.06 87.9067 131.063 87.8703 131.087 87.8499L132.856 86.3129C132.881 86.2914 132.918 86.2946 132.938 86.3182C132.96 86.3429 132.956 86.3794 132.933 86.3998L131.163 87.9368C131.152 87.9465 131.138 87.9507 131.124 87.9507L131.125 87.9518Z" fill="#A56050"/>
<path d="M140.175 54.3182L148.935 53.6527L148.899 51.9161L140.08 52.1425L140.175 54.3182Z" fill="#E88562"/>
<path d="M144.327 72.2814C144.327 72.2814 144.974 79.6455 144.701 79.4641C144.428 79.2827 140.935 79.4673 140.935 79.4673L144.327 72.2814Z" fill="#26547C"/>
<path d="M82.1409 130.508C82.1409 130.508 78.5435 137.261 78.3373 137.993C78.1311 138.725 77.838 146.893 77.1625 147.888C76.7351 148.518 75.221 147.377 74.654 148.368C73.8754 149.731 74.5047 150.303 75.2382 150.509C75.9705 150.715 77.8036 151.23 77.8036 151.23C77.8036 151.23 83.2491 142.069 83.8741 139.007C84.2618 137.106 89.0576 134.034 89.7911 134.241C90.5245 134.448 85.2691 127.83 82.142 130.508H82.1409Z" fill="#E0C88D"/>
<path d="M57.264 130.519C57.264 130.519 55.403 137.304 54.9284 139.185C54.5933 140.515 52.6174 147.351 52.6174 147.351C52.218 147.712 50.3548 146.858 50.2421 149.138C50.9272 150.695 54.7673 150.124 54.7673 150.124C54.7673 150.124 59.1991 144.076 59.1293 139.999C59.7564 137.752 63.0145 132.064 63.0145 132.064L57.2651 130.519H57.264Z" fill="#E0C88D"/>
<path d="M95.577 149.562C95.3493 151.452 90.0531 151.189 90.2356 149.678C90.4171 148.167 92.2502 147.492 92.2502 147.492C92.2502 147.492 85.0446 138.822 85.9638 134.202C84.891 134.243 79.4455 132.625 75.7257 134.863C72.0047 137.101 68.1228 134.92 67.3238 135.208C66.5249 135.496 68.4063 138.829 69.028 140.052C69.6498 141.276 70.2608 144.632 69.406 146.494C68.2602 148.99 68.6017 152.268 65.3565 152.057C61.8987 151.836 62.8652 148.349 64.331 148.909C65.7968 149.47 64.404 140.833 64.404 140.833C64.404 140.833 60.3792 136.209 59.3365 135.319C58.2937 134.429 55.288 131.944 55.9141 127.023C56.2169 124.636 53.4893 121.745 51.958 122.256C45.9004 124.271 44.543 122.528 43.9298 120.745C43.8364 120.474 43.7591 120.2 43.6882 119.941C43.3124 118.598 44.0576 117.948 45.2947 117.144C46.1924 116.568 47.3415 115.909 48.5152 114.846C47.887 112.148 49.05 109.993 53.0179 108.593C54.9498 107.912 59.5566 107.393 61.2501 111.668C62.2359 114.159 63.415 120.03 67.8607 120.011C67.9327 120.011 68.0057 120.011 68.0787 120.007C69.8173 119.93 72.8756 119.589 76.2637 119.35C79.0901 119.147 82.1463 119.013 84.8567 119.155H84.861C87.5596 119.296 89.9145 119.711 91.36 120.6C91.4008 120.625 91.4416 120.65 91.4824 120.679C95.999 123.584 95.8798 130.764 93.8395 135.077C91.7863 139.429 95.8068 147.671 95.5791 149.56L95.577 149.562Z" fill="#EFDAA0"/>
<path d="M93.4777 123.857C93.4777 123.857 103.959 117.348 98.8319 108.77C100.665 115.335 90.4988 121.305 90.4988 121.305C90.4988 121.305 91.0389 123.673 93.4766 123.857H93.4777Z" fill="#EFDAA0"/>
<path d="M76.2615 119.351C76.1229 125.135 69.7915 131.522 66.3509 131.732C62.9102 131.942 64.6574 127.458 66.615 126.411C68.0518 125.645 67.9917 121.935 67.8585 120.012C67.9305 120.012 68.0035 120.012 68.0765 120.008C69.8151 119.931 72.8735 119.59 76.2615 119.351Z" fill="#D86B21"/>
<path d="M83.8376 124.98C81.3258 121.972 77.9056 121.638 77.431 123.519C76.9563 125.4 78.8195 126.255 78.3448 128.135C77.8702 130.017 82.3761 131.383 83.9536 130.318C85.5311 129.254 84.6935 126.005 83.8376 124.98Z" fill="#6B473D"/>
<path d="M91.4794 120.681C91.1701 122.075 90.5763 123.832 89.5787 124.503C88.289 125.372 85.7471 120.846 84.8591 119.157C87.5577 119.298 89.9126 119.712 91.3581 120.603C91.3989 120.627 91.4397 120.652 91.4805 120.681H91.4794Z" fill="#D86B21"/>
<path d="M52.3554 108.845C52.3554 108.845 50.9078 112.68 50.4514 114.182C49.995 115.684 47.7142 115.57 49.1413 117.546C50.5674 119.522 51.0614 117.26 53.3047 118.133C55.548 119.005 59.7306 119.214 61.2888 118.529C62.847 117.844 62.5667 105.065 52.3543 108.846L52.3554 108.845Z" fill="#D86B21"/>
<path d="M53.7955 108.252C53.7955 108.252 60.3718 106.292 62.104 109.807C63.4592 112.559 65.9849 116.095 61.3469 117.389C57.4488 118.476 59.6717 112.735 57.03 112.223C55.1615 111.861 52.581 109.717 53.7966 108.253L53.7955 108.252Z" fill="#C4570C"/>
<path d="M52.3908 113.515C52.3908 113.515 51.5553 114.998 51.9355 115.017C52.3156 115.036 54.2357 114.75 54.2357 114.75L52.3908 113.515Z" fill="#6B473D"/>
<path d="M45.2452 119.257C44.6976 119.992 44.3346 120.564 43.9287 120.745C43.8352 120.474 43.7579 120.2 43.6871 119.941C43.3112 118.598 44.0565 117.948 45.2935 117.144C45.5362 117.705 45.7521 118.573 45.2463 119.257H45.2452Z" fill="#6B473D"/>
<path d="M55.1174 125.803L65.9762 119.029L64.8894 117.145L53.746 123.902L55.1174 125.803Z" fill="#6B473D"/>
<path d="M32.6921 127.283C31.8567 125.788 26.3875 126.063 25.3641 128.376C25.1322 128.9 24.0873 132.13 24.8787 134.531C25.6691 136.933 26.7934 137.202 27.2756 138.497C27.5687 139.287 26.7064 141.368 26.1534 142.929C26.1115 142.921 26.0686 142.916 26.0245 142.914C25.45 142.886 24.9625 143.303 24.9357 143.848C24.9088 144.392 25.3523 144.855 25.9268 144.883C26.1287 144.893 26.3188 144.847 26.4831 144.761C27.9532 144.194 30.2716 140.986 30.3565 139.267C30.4553 137.272 31.6 134.68 32.6137 132.549C33.6285 130.418 33.5276 128.777 32.6921 127.282V127.283Z" fill="#663A2F"/>
<path d="M38.4565 137.463C37.9797 136.579 37.0133 134.877 35.8696 133.353C34.7474 131.857 35.3112 132.599 35.8696 129.359C36.7781 124.094 32.4182 123.731 32.4182 123.731C31.3283 123.731 29.6938 132.446 30.9878 134.401C32.2829 136.358 34.5971 136.62 35.1426 138.254C35.4755 139.252 34.7936 141.528 34.4596 143.195C34.4467 143.195 34.4349 143.193 34.422 143.193C33.8475 143.193 33.3815 143.634 33.3815 144.179C33.3815 144.724 33.8475 145.166 34.422 145.166C37.0949 145.166 37.9808 140.543 38.5693 138.731C38.7057 138.31 38.6659 137.853 38.4554 137.463H38.4565Z" fill="#7F4B3B"/>
<path d="M10.5554 125.636C10.5554 125.636 10.7369 132.122 9.46547 134.845C8.99189 136.976 7.69253 139.297 6.70243 141.288C5.11742 141.376 4.84358 142.785 5.3891 143.603C5.70804 144.081 7.91481 144.429 8.3755 143.245C9.64695 139.977 11.96 137.529 12.9158 135.498C13.6997 133.831 15.0216 128.548 15.0216 128.548L10.5544 125.636H10.5554Z" fill="#663A2F"/>
<path d="M15.9677 118.978C17.2391 122.79 29.945 123.503 32.896 122.005C37.4856 119.677 36.5288 116.741 39.4347 113.11C39.4347 118.193 36.1648 124.002 35.2574 124.728C36.1659 126.362 35.2574 131.082 31.9875 132.897C30.1361 133.926 22.3614 135.439 18.5471 134.35C14.7327 133.26 10.7369 133.079 8.92103 124.002C8.37658 122.368 1.39973 125.013 0.128286 121.746C-0.460188 120.232 3.73 119.645 4.45593 117.83C3.18448 113.11 10.6897 110.449 13.414 112.446C16.1384 114.444 15.0893 116.344 15.9677 118.978Z" fill="#7F4B3B"/>
<path d="M8.19409 124.547L16.5498 118.738L17.6387 120.19L8.73961 125.999L8.19409 124.547Z" fill="#3F1F0A"/>
<path d="M9.46555 127.18C9.46555 127.631 9.3034 127.997 9.10259 127.997C8.90178 127.997 8.73962 127.631 8.73962 127.18C8.73962 126.729 8.90178 126.363 9.10259 126.363C9.3034 126.363 9.46555 126.729 9.46555 127.18Z" fill="#E0AB36"/>
<path d="M8.01269 115.289C8.01269 115.289 11.827 119.101 12.3715 120.372C12.9159 121.643 14.0059 123.095 15.2773 122.187C16.5488 121.279 18.0017 117.466 16.1858 115.833C14.3699 114.199 10.8606 112.765 10.3741 112.928C9.82966 113.11 7.64973 113.291 8.01269 115.289Z" fill="#663A2F"/>
<path d="M19.27 131C19.27 131 14.9144 125.721 12.916 126.629C12.916 126.629 15.6221 133.521 15.8036 135.155C15.9109 136.121 17.0224 141.009 17.1502 142.952C16.8602 143.19 16.2213 143.528 16.2965 144.047C16.4704 145.24 17.8611 145.249 17.9717 145.249C19.4493 145.249 19.6716 143.99 19.503 142.506C19.3269 140.954 19.27 130.999 19.27 130.999V131Z" fill="#7F4B3B"/>
<path d="M5.61691 117.374L7.1332 118.223L5.61691 118.496C5.61691 118.496 5.43543 118.223 5.61691 118.04C5.7984 117.859 5.61691 117.374 5.61691 117.374Z" fill="#3F1F0A"/>
<path d="M0.738391 122.624C0.738391 122.624 1.4772 121.995 1.4772 121.45C1.4772 120.906 0.90806 120.367 0.90806 120.367C0.90806 120.367 0.205758 120.906 0.0242759 121.269C-0.157206 121.632 0.738391 122.624 0.738391 122.624Z" fill="#3F1F0A"/>
</svg>
